<svg id="Layer_1_Image" data-name="Layer 1 Image" xmlns="http://www.w3.org/2000/svg" viewBox="0 0 104.45 28.72"><defs><style>.cls-1{fill:#fff;}</style></defs><path d="M68,20.34a8.71,8.71,0,0,1-1.13.08,7.24,7.24,0,0,1-3.19-.72l-.44-.24a9.09,9.09,0,0,1-1.09.85,8.46,8.46,0,0,1-3.68,1.34,12.15,12.15,0,0,1-1.7.12,10.11,10.11,0,0,1-3.25-.52c-.27-.1-.53-.2-.78-.32A5.66,5.66,0,0,1,51,22.28a8.65,8.65,0,0,1-2.82.82,9.8,9.8,0,0,1-1.3.09,7.78,7.78,0,0,1-2.52-.4A5.09,5.09,0,0,1,41.74,24a5.45,5.45,0,0,1-.78.05,5.34,5.34,0,0,1-1.21-.14,4.94,4.94,0,0,1-1.85.62,5.3,5.3,0,0,1-.77.06,5.05,5.05,0,0,1-1.23-.15,5.16,5.16,0,0,1-1.86.61,4.31,4.31,0,0,1-.71.05,4.63,4.63,0,0,1-1.53-.25,5.05,5.05,0,0,1-2.23.84,5.3,5.3,0,0,1-.77.06,4.68,4.68,0,0,1-1.51-.24,5,5,0,0,1-2.13.8,5.36,5.36,0,0,1-.78.05A4.81,4.81,0,0,1,22.6,26a5.06,5.06,0,0,1-2.37.95,5.12,5.12,0,0,1-.67,0,4.75,4.75,0,0,1-1.88-.38A5.73,5.73,0,0,1,15,27.74a7.12,7.12,0,0,1-.89.06,5.06,5.06,0,0,1-2-.41,5.32,5.32,0,0,1-2.74,1.15,5.6,5.6,0,0,1-5.31-2.2A10.19,10.19,0,0,1,2.15,22a13.74,13.74,0,0,1-.06-5.56,9.32,9.32,0,0,1,2.5-4.77,8.48,8.48,0,0,1,5-2.44,9.87,9.87,0,0,1,1.32-.09A8.26,8.26,0,0,1,15,10.19a8.77,8.77,0,0,1,2.12,1.69,4.65,4.65,0,0,1,.91-.22,5.05,5.05,0,0,1,.75-.05,4.57,4.57,0,0,1,1.17.14,6.21,6.21,0,0,1,1-.22,8.26,8.26,0,0,1,1.1-.08,5.58,5.58,0,0,1,2-3.94,5.45,5.45,0,0,1,2.77-1.22,6.78,6.78,0,0,1,.77,0,5.46,5.46,0,0,1,2.22.47A5.63,5.63,0,0,1,32,8.39a5.42,5.42,0,0,1,.76,1.26q.31,0,.63.06l.32,0,.44-.07a6.49,6.49,0,0,1,.77,0,6.09,6.09,0,0,1,1,.09,6.57,6.57,0,0,1,2.07-.58,7.55,7.55,0,0,1,.83-.05A6.32,6.32,0,0,1,42,9.88l.25-.21A7.63,7.63,0,0,1,46,8.06,8,8,0,0,1,47.21,8a7.62,7.62,0,0,1,1.28.11A8.79,8.79,0,0,1,49.88,6a9.59,9.59,0,0,1,2.86-2.22,10.59,10.59,0,0,1,3.22-1,11.41,11.41,0,0,1,1.62-.11,9.07,9.07,0,0,1,2.25.27,7.48,7.48,0,0,1,3.25,1.69,6.31,6.31,0,0,1,.88,1l.46,0A5.08,5.08,0,0,1,66,5.8,5.4,5.4,0,0,1,68.31,5a5.92,5.92,0,0,1,.71,0,4.88,4.88,0,0,1,2.19.53,7.74,7.74,0,0,1,3.5-1.37A9.77,9.77,0,0,1,75.9,4a7.18,7.18,0,0,1,2.63.48l.13,0,.56-.39A8.43,8.43,0,0,1,82.57,3a9.08,9.08,0,0,1,1.36-.1A7.91,7.91,0,0,1,85.56,3a5.6,5.6,0,0,1,1,.27l.38-.25A8.38,8.38,0,0,1,90.25,1.9a9.18,9.18,0,0,1,1.36-.1A8.07,8.07,0,0,1,93.25,2,6.64,6.64,0,0,1,96.07,3.2a5,5,0,0,1,2,3.31,4.64,4.64,0,0,1-.15,2,5.59,5.59,0,0,1,.44,1.54,6,6,0,0,1,0,1.52c.32,0,.64,0,1,0a7.14,7.14,0,0,1,2.63.48,7,7,0,0,1,2.86,2,6.45,6.45,0,0,1,1.43,3.21,5.78,5.78,0,0,1-.41,3.19l.06.28a4.49,4.49,0,0,1-.52,3,5.15,5.15,0,0,1-2.22,2.07,8.72,8.72,0,0,1-2.83.82,9.61,9.61,0,0,1-1.3.1,8.1,8.1,0,0,1-2.7-.46q-.36-.13-.72-.3c-.14.13-.3.25-.45.37A8.62,8.62,0,0,1,90.06,28a7.83,7.83,0,0,1-2.52-.41,5,5,0,0,1-2.67,1.2,5.32,5.32,0,0,1-.78.06,4.81,4.81,0,0,1-1.2-.15,5.19,5.19,0,0,1-1.86.63,6.78,6.78,0,0,1-.77.05A4.91,4.91,0,0,1,79,29.27a5.43,5.43,0,0,1-1.87.62,5.49,5.49,0,0,1-.7.05,4.84,4.84,0,0,1-1.74-.32,5.23,5.23,0,0,1-2.23.85,6.27,6.27,0,0,1-.74.05,5.14,5.14,0,0,1-2.12-.45,5.39,5.39,0,0,1-2-1.54,5.09,5.09,0,0,1-1.16-2.64,5.24,5.24,0,0,1,.37-2.82A5.5,5.5,0,0,1,68.41,21Z" transform="translate(-1.83 -1.8)"/><path class="cls-1" d="M103.84,20.34c.08-.13.16-.26.23-.4a3.85,3.85,0,0,0,.36-2.4,4.53,4.53,0,0,0-1-2.31,5.09,5.09,0,0,0-2.13-1.51,5.31,5.31,0,0,0-2-.36,7.5,7.5,0,0,0-.93.06,6,6,0,0,0-3,1.24,5.9,5.9,0,0,0-1.18,1.27A5.93,5.93,0,0,0,92.71,15a6.32,6.32,0,0,0,2.4-1.16,3.73,3.73,0,0,0,1.44-3.51,3.64,3.64,0,0,0-.67-1.67,2.89,2.89,0,0,0,.38-1.91A3.24,3.24,0,0,0,95,4.62a5,5,0,0,0-2.07-.9,6.8,6.8,0,0,0-1.29-.12,8.53,8.53,0,0,0-1.11.08,6.76,6.76,0,0,0-2.64.9,5.91,5.91,0,0,0-1,.83,5.39,5.39,0,0,0-1.6-.62,6.7,6.7,0,0,0-1.28-.12,8.53,8.53,0,0,0-1.11.08,6.87,6.87,0,0,0-2.65.9,6.1,6.1,0,0,0-1.24,1,5.57,5.57,0,0,0-1.06-.55,5.35,5.35,0,0,0-2-.36,7.78,7.78,0,0,0-.94.06A6,6,0,0,0,72,7.08a6.17,6.17,0,0,0-.69.66,3.13,3.13,0,0,0-2.3-1,2.45,2.45,0,0,0-.46,0A3.11,3.11,0,0,0,66.31,8a3,3,0,0,0-.48-.31,3.11,3.11,0,0,0-1.41-.32,4.54,4.54,0,0,0-.6.05,3.2,3.2,0,0,0-.82.22A4.12,4.12,0,0,0,61.86,5.9a5.58,5.58,0,0,0-2.48-1.28,7.34,7.34,0,0,0-1.8-.21,9.41,9.41,0,0,0-1.37.1,8.48,8.48,0,0,0-2.66.83,7.89,7.89,0,0,0-2.32,1.8,7.31,7.31,0,0,0-1.52,2.8l-.09.39-.43-.2a5.36,5.36,0,0,0-2-.36,6.51,6.51,0,0,0-3.88,1.3,5.87,5.87,0,0,0-1.13,1.21,5.11,5.11,0,0,0-.87-.68,4.57,4.57,0,0,0-2.45-.7,4.4,4.4,0,0,0-.62,0,4.13,4.13,0,0,0-2,.72,4,4,0,0,0-1.31-.22,3.15,3.15,0,0,0-.53,0,4.6,4.6,0,0,0-.72.14,3,3,0,0,0-.55-.13,2.74,2.74,0,0,0-.5,0,3.39,3.39,0,0,0-1.21.24c0-.1,0-.21,0-.31a3.73,3.73,0,0,0-.78-1.87,4,4,0,0,0-1.49-1.15A3.7,3.7,0,0,0,27.64,8a3,3,0,0,0-.52,0,3.6,3.6,0,0,0-1.87.81,4,4,0,0,0-1.13,1.55,4.07,4.07,0,0,0,.22,3.34,5,5,0,0,0-2.25-.53,6.85,6.85,0,0,0-.88.06,4.63,4.63,0,0,0-1.2.34,3,3,0,0,0-1.2-.24l-.5,0a3,3,0,0,0-1.63.77,7.45,7.45,0,0,0-2.54-2.46,6.52,6.52,0,0,0-3.26-.84A7.79,7.79,0,0,0,9.81,11,6.73,6.73,0,0,0,5.87,12.9a7.64,7.64,0,0,0-2,3.88,12,12,0,0,0,.06,4.83,8.44,8.44,0,0,0,1.55,3.61A3.83,3.83,0,0,0,8.55,26.8a3.69,3.69,0,0,0,.56,0,3.45,3.45,0,0,0,2-.87,3.23,3.23,0,0,0,.68-.92,2.92,2.92,0,0,0,.93.7,3.17,3.17,0,0,0,1.46.33,3.66,3.66,0,0,0,.64-.05,3.76,3.76,0,0,0,2.66-1.66c.07.07.13.16.21.23a2.92,2.92,0,0,0,1.91.7l.42,0a2.87,2.87,0,0,0,2.28-1.47l0-.06a.3.3,0,0,0,.08.08,2.72,2.72,0,0,0,2,.81l.53,0A3,3,0,0,0,27,23.34,3,3,0,0,0,28.8,24a3.2,3.2,0,0,0,.52,0,3,3,0,0,0,2.16-1.25,3,3,0,0,0,1.85.64l.46,0a3.1,3.1,0,0,0,1.84-.87,3,3,0,0,0,1.5.39,3.2,3.2,0,0,0,.52,0,3,3,0,0,0,1.82-.88,2.89,2.89,0,0,0,1.49.38l.53,0a3.11,3.11,0,0,0,2.3-1.48l.08-.15a5.92,5.92,0,0,0,1,.45,6.34,6.34,0,0,0,2.1.35,7.65,7.65,0,0,0,1-.08,7,7,0,0,0,2.24-.63,3.44,3.44,0,0,0,1.48-1.35,2.64,2.64,0,0,0,.33-1,6.74,6.74,0,0,0,2.11,1.19A8,8,0,0,0,56.8,20a10.61,10.61,0,0,0,1.47-.11,6.79,6.79,0,0,0,2.92-1.05A6.12,6.12,0,0,0,63,17a5.75,5.75,0,0,0,1.51,1.09,5.41,5.41,0,0,0,2.4.54,5.3,5.3,0,0,0,.88-.07,5.73,5.73,0,0,0,3.15-1.38,5.5,5.5,0,0,0,.9-1.08,5.55,5.55,0,0,0,1.68.95l.06,0a3.41,3.41,0,0,0-1.22,2.28,10.41,10.41,0,0,0,0,2.3,3.93,3.93,0,0,0-.6-.06,2.63,2.63,0,0,0-.49,0,3.47,3.47,0,0,0-1.73.73,3.62,3.62,0,0,0-1.07,1.43,3.5,3.5,0,0,0,.51,3.6,3.77,3.77,0,0,0,1.39,1.05,3.5,3.5,0,0,0,1.39.29l.49,0A3.51,3.51,0,0,0,74,27.93a4.34,4.34,0,0,0,.52-.53,3,3,0,0,0,2,.74,2.28,2.28,0,0,0,.45,0,3,3,0,0,0,1.84-.87,2.92,2.92,0,0,0,1.5.39,3.12,3.12,0,0,0,.52,0,3.08,3.08,0,0,0,1.83-.88,2.88,2.88,0,0,0,1.48.39,5.29,5.29,0,0,0,.54,0,3.15,3.15,0,0,0,2.3-1.48l.09-.18a6.92,6.92,0,0,0,.9.46,5.82,5.82,0,0,0,2.14.4,6.81,6.81,0,0,0,1.07-.09A6.59,6.59,0,0,0,94.05,25a5.78,5.78,0,0,0,1.22-1.25,5.38,5.38,0,0,0,1.64.92A6,6,0,0,0,99,25a7.54,7.54,0,0,0,1-.08,7.07,7.07,0,0,0,2.25-.63,3.4,3.4,0,0,0,1.48-1.36,2.67,2.67,0,0,0,.32-1.83A2.6,2.6,0,0,0,103.84,20.34Z" transform="translate(-1.83 -1.8)"/><path d="M72.05,26.88a1.63,1.63,0,0,1-.9-.13,1.88,1.88,0,0,1-.73-.55,1.69,1.69,0,0,1-.37-.83,1.77,1.77,0,0,1,.12-.91,1.84,1.84,0,0,1,.56-.73,1.71,1.71,0,0,1,1.74-.24,1.73,1.73,0,0,1,.73.55,1.66,1.66,0,0,1,.36.84,1.71,1.71,0,0,1-.12.9,1.79,1.79,0,0,1-.55.73A1.64,1.64,0,0,1,72.05,26.88Z" transform="translate(-1.83 -1.8)"/><path d="M80.59,25.77a1.1,1.1,0,0,1-1.16-.4A3.72,3.72,0,0,1,79,23.84c-.08-.56-.16-1-.25-1.39s-.27-.53-.55-.49a.51.51,0,0,0-.46.32,1.56,1.56,0,0,0-.06.71c0,.3.07.63.12,1a7.17,7.17,0,0,1,.07,1.09,1.29,1.29,0,0,1-.25.8,1.2,1.2,0,0,1-.84.41,1.24,1.24,0,0,1-1-.29A2.94,2.94,0,0,1,75,25a9.08,9.08,0,0,1-.46-1.47c-.12-.53-.21-1.05-.29-1.57a9.42,9.42,0,0,1-.07-2.39,1.56,1.56,0,0,1,.91-1.32,1.74,1.74,0,0,1,1-.15.9.9,0,0,1,.68.42,3.77,3.77,0,0,1,.38-.23,2.36,2.36,0,0,1,.73-.2,2.3,2.3,0,0,1,1,.12,1.52,1.52,0,0,1,.81.64,3.57,3.57,0,0,1,.76-.86,2.42,2.42,0,0,1,1.21-.43,2.91,2.91,0,0,1,1.91.4A4.13,4.13,0,0,1,85,19.45a6.25,6.25,0,0,1,.74,2.28,8.65,8.65,0,0,1,.08,1.59,2.8,2.8,0,0,1-.35,1.3,1.33,1.33,0,0,1-1,.62,1.2,1.2,0,0,1-.92-.16,1.35,1.35,0,0,1-.46-.72,7,7,0,0,1-.23-1.06c0-.38-.1-.72-.16-1a1.68,1.68,0,0,0-.24-.67.52.52,0,0,0-.54-.18.36.36,0,0,0-.34.3,2,2,0,0,0,0,.71c0,.29.07.63.11,1a3.88,3.88,0,0,1-.07,1.61A1.08,1.08,0,0,1,80.59,25.77Z" transform="translate(-1.83 -1.8)"/><path d="M90.89,24.36a4.45,4.45,0,0,1-2.26-.21A3.88,3.88,0,0,1,87,22.9,4.3,4.3,0,0,1,86.12,21a3.7,3.7,0,0,1,.24-2.1,4,4,0,0,1,1.3-1.62,4.59,4.59,0,0,1,2.12-.83,4.3,4.3,0,0,1,2.22.21,4,4,0,0,1,2.56,3.16,3.72,3.72,0,0,1-.24,2.07A4,4,0,0,1,93,23.49,4.85,4.85,0,0,1,90.89,24.36Zm-.29-2.47a1.06,1.06,0,0,0,.74-.47,1.18,1.18,0,0,0-.23-1.64,1.05,1.05,0,0,0-.84-.23,1.07,1.07,0,0,0-.74.45,1.14,1.14,0,0,0-.23.87,1.22,1.22,0,0,0,.46.78A1.08,1.08,0,0,0,90.6,21.89Z" transform="translate(-1.83 -1.8)"/><path d="M99.85,23.09a4.63,4.63,0,0,1-2.28-.19,3.62,3.62,0,0,1-2.48-3.08,4,4,0,0,1,.24-2.09A4.12,4.12,0,0,1,96.59,16a4.18,4.18,0,0,1,2.08-.86,4,4,0,0,1,2,.19,3.26,3.26,0,0,1,1.4,1,2.81,2.81,0,0,1,.63,1.41,2.21,2.21,0,0,1-.17,1.33,2.31,2.31,0,0,1-.82.88,4.27,4.27,0,0,1-1.15.52,5.41,5.41,0,0,1-1.23.19,4.57,4.57,0,0,1-1-.05,1.53,1.53,0,0,0,.86.55,2.4,2.4,0,0,0,1,0,5.6,5.6,0,0,0,.92-.24,1.26,1.26,0,0,1,.86-.07.6.6,0,0,1,.43.49,1,1,0,0,1-.12.64,1.89,1.89,0,0,1-.75.63A5.41,5.41,0,0,1,99.85,23.09Zm-1.78-4.53a.88.88,0,0,0,.54.31,1.47,1.47,0,0,0,.66,0,1.15,1.15,0,0,0,.53-.26.49.49,0,0,0,.17-.46.67.67,0,0,0-.3-.48,1,1,0,0,0-.75-.13.93.93,0,0,0-.68.4A.92.92,0,0,0,98.07,18.56Z" transform="translate(-1.83 -1.8)"/><path d="M8.91,25a2.06,2.06,0,0,1-2-.87,6.57,6.57,0,0,1-1.19-2.86,10,10,0,0,1-.07-4.09,5.83,5.83,0,0,1,1.54-3,4.94,4.94,0,0,1,2.91-1.4,5,5,0,0,1,3.2.55,6,6,0,0,1,2.28,2.45,9.94,9.94,0,0,1,1,4,6.56,6.56,0,0,1-.37,3.09,2,2,0,0,1-1.68,1.35,1.71,1.71,0,0,1-1-.1,1.29,1.29,0,0,1-.58-.55,2.08,2.08,0,0,1-.26-.76,4.35,4.35,0,0,1,0-.69l-1.26.2c-.48.08-.89.12-1.22.15a4.23,4.23,0,0,1,.15.67,2.4,2.4,0,0,1,0,.8,1.33,1.33,0,0,1-.41.7A1.71,1.71,0,0,1,8.91,25Zm.74-5.55c.88-.15,1.77-.28,2.66-.37a3.7,3.7,0,0,0-.17-1.12,1.68,1.68,0,0,0-.55-.82,1.17,1.17,0,0,0-1-.21,1.18,1.18,0,0,0-.85.46,1.62,1.62,0,0,0-.28.92A3.26,3.26,0,0,0,9.65,19.4Z" transform="translate(-1.83 -1.8)"/><path d="M24.71,22.72a1.1,1.1,0,0,1-1-.25,1.93,1.93,0,0,1-.47-.91Q23.12,21,23,20.39a3.44,3.44,0,0,0-.45-1.4.91.91,0,0,0-1-.43.92.92,0,0,0-.77.67,3.34,3.34,0,0,0-.07,1.48,11.6,11.6,0,0,1,.12,1.17,1.76,1.76,0,0,1-.18,1,1.13,1.13,0,0,1-.92.52,1.17,1.17,0,0,1-.92-.27,2.75,2.75,0,0,1-.68-.94,7.74,7.74,0,0,1-.45-1.31c-.11-.48-.2-.94-.27-1.39s-.1-.91-.12-1.39a7.38,7.38,0,0,1,.06-1.35,2.47,2.47,0,0,1,.38-1,1.25,1.25,0,0,1,2.14.22,1.92,1.92,0,0,1,.59-.5,2.52,2.52,0,0,1,1-.34,3.34,3.34,0,0,1,2.21.36,3.76,3.76,0,0,1,1.46,1.65,8.26,8.26,0,0,1,.73,2.62A7,7,0,0,1,26,21.12a2.26,2.26,0,0,1-.35,1.08A1.26,1.26,0,0,1,24.71,22.72Z" transform="translate(-1.83 -1.8)"/><path d="M28,13.93a1.88,1.88,0,0,1-1.48-.41,2,2,0,0,1-.78-1.37,2.12,2.12,0,0,1,.12-1.07,2.06,2.06,0,0,1,.6-.83,1.89,1.89,0,0,1,1-.42,1.86,1.86,0,0,1,1,.14,2.15,2.15,0,0,1,.82.64,2.15,2.15,0,0,1,.29,2.06,2.15,2.15,0,0,1-.61.84A1.86,1.86,0,0,1,28,13.93Zm1.14,8.17a1.26,1.26,0,0,1-1.06-.25,2.19,2.19,0,0,1-.6-1.12,17.65,17.65,0,0,1-.42-2.05,19.42,19.42,0,0,1-.18-2.09,2.36,2.36,0,0,1,.28-1.25,1.55,1.55,0,0,1,2-.28,2.34,2.34,0,0,1,.61,1.13,16,16,0,0,1,.41,2,12.65,12.65,0,0,1,.18,2.08,2.26,2.26,0,0,1-.29,1.25A1.24,1.24,0,0,1,29.13,22.1Z" transform="translate(-1.83 -1.8)"/><path d="M37.45,20.94a1.08,1.08,0,0,1-1.15-.4A3.57,3.57,0,0,1,35.81,19c-.08-.56-.16-1-.25-1.4s-.27-.52-.55-.49a.54.54,0,0,0-.46.33,1.56,1.56,0,0,0-.06.71c0,.29.07.63.12,1a7.23,7.23,0,0,1,.08,1.08,1.37,1.37,0,0,1-.25.81,1.22,1.22,0,0,1-.85.4,1.18,1.18,0,0,1-1-.29,2.67,2.67,0,0,1-.7-1,8.19,8.19,0,0,1-.46-1.47c-.12-.53-.22-1.05-.29-1.57a9.49,9.49,0,0,1-.08-2.39A1.55,1.55,0,0,1,32,13.39a1.63,1.63,0,0,1,1-.15.88.88,0,0,1,.67.42c.11-.07.23-.15.38-.23a2.18,2.18,0,0,1,.73-.2,2.05,2.05,0,0,1,1,.12,1.48,1.48,0,0,1,.81.64,3.57,3.57,0,0,1,.76-.86,2.36,2.36,0,0,1,1.21-.43,2.84,2.84,0,0,1,1.91.4,4.08,4.08,0,0,1,1.41,1.52,6.44,6.44,0,0,1,.74,2.28,8.62,8.62,0,0,1,.07,1.59,2.72,2.72,0,0,1-.35,1.3,1.32,1.32,0,0,1-1,.62,1.21,1.21,0,0,1-.93-.17,1.34,1.34,0,0,1-.46-.71,6.18,6.18,0,0,1-.22-1.06c-.06-.38-.11-.72-.16-1a1.62,1.62,0,0,0-.25-.67.51.51,0,0,0-.54-.18.37.37,0,0,0-.34.3,2,2,0,0,0,0,.71c0,.29.07.63.12,1a3.86,3.86,0,0,1-.08,1.61A1.08,1.08,0,0,1,37.45,20.94Z" transform="translate(-1.83 -1.8)"/><path d="M47.77,19.5a4.79,4.79,0,0,1-2.29-.18,3.77,3.77,0,0,1-1.67-1.16A3.7,3.7,0,0,1,43,16.24a4,4,0,0,1,.25-2.1,4.07,4.07,0,0,1,3.33-2.54,3.85,3.85,0,0,1,2,.18,3.44,3.44,0,0,1,1.4,1,2.91,2.91,0,0,1,.64,1.42,2.17,2.17,0,0,1-.18,1.32,2.38,2.38,0,0,1-.81.89,4.65,4.65,0,0,1-1.16.51,6.06,6.06,0,0,1-1.23.2,5.17,5.17,0,0,1-1-.06,1.58,1.58,0,0,0,.86.56,2.59,2.59,0,0,0,1,0,8.13,8.13,0,0,0,.92-.24,1.29,1.29,0,0,1,.87-.07.58.58,0,0,1,.42.49.92.92,0,0,1-.12.63,1.63,1.63,0,0,1-.75.63A5.07,5.07,0,0,1,47.77,19.5ZM46,15a.92.92,0,0,0,.55.31,1.47,1.47,0,0,0,.66,0,1.26,1.26,0,0,0,.53-.26.51.51,0,0,0,.17-.45.74.74,0,0,0-.3-.48,1,1,0,0,0-.75-.13.91.91,0,0,0-.69.39A1,1,0,0,0,46,15Z" transform="translate(-1.83 -1.8)"/><path d="M58.1,18.05a7.09,7.09,0,0,1-3.33-.23,4.72,4.72,0,0,1-2.3-1.66,6,6,0,0,1-1.12-2.86,6.94,6.94,0,0,1,.14-2.88A5.7,5.7,0,0,1,52.63,8.3a6,6,0,0,1,1.79-1.38,6.61,6.61,0,0,1,2.09-.66A6.5,6.5,0,0,1,59,6.34a3.84,3.84,0,0,1,1.7.85,2.19,2.19,0,0,1,.73,1.29,2.22,2.22,0,0,1-.11,1.22,1.52,1.52,0,0,1-.63.69,2.43,2.43,0,0,1-.86.29,2.8,2.8,0,0,1-.92,0c-.23-.06-.46-.11-.7-.15a2.64,2.64,0,0,0-.93,0,2.34,2.34,0,0,0-1.65.9,2.56,2.56,0,0,0-.38,2,2.12,2.12,0,0,0,.47,1.16,1.93,1.93,0,0,0,.89.6,2.59,2.59,0,0,0,1.11.08,2.7,2.7,0,0,0,.93-.27,2,2,0,0,0,.52-.39c.11-.13.16-.23.15-.28a5.44,5.44,0,0,1-1.86,0,1,1,0,0,1-.83-.92,1.41,1.41,0,0,1,.31-1.14,2.46,2.46,0,0,1,1.62-.66,5.27,5.27,0,0,1,1.92,0,1.77,1.77,0,0,1,1.08.74A3.53,3.53,0,0,1,62,13.82a3,3,0,0,1-.35,1.92,4.19,4.19,0,0,1-1.43,1.54A5,5,0,0,1,58.1,18.05Z" transform="translate(-1.83 -1.8)"/><path d="M67.59,16.75a3.83,3.83,0,0,1-2.25-.32,4,4,0,0,1-1.66-1.52,6.23,6.23,0,0,1-.85-2.48A4.74,4.74,0,0,1,63,10.14a1.43,1.43,0,0,1,1.16-1,1.61,1.61,0,0,1,.94.1,1,1,0,0,1,.49.48,2,2,0,0,1,.21.69c0,.31.07.64.08,1a7.9,7.9,0,0,0,.08,1,1.75,1.75,0,0,0,.49,1.11,1,1,0,0,0,.77.26.94.94,0,0,0,.68-.46,1.7,1.7,0,0,0,.15-1.2,7.59,7.59,0,0,0-.19-1c-.07-.28-.13-.61-.19-1a1.93,1.93,0,0,1,.15-1.08,1.27,1.27,0,0,1,1.08-.61,1.41,1.41,0,0,1,1.38.64A4.79,4.79,0,0,1,71,11.29a6.66,6.66,0,0,1-.09,2.62,3.88,3.88,0,0,1-1.12,1.9A4,4,0,0,1,67.59,16.75Z" transform="translate(-1.83 -1.8)"/><path d="M76.45,15.51a4.75,4.75,0,0,1-2.28-.19,3.77,3.77,0,0,1-1.68-1.16,3.87,3.87,0,0,1-.81-1.92,4.16,4.16,0,0,1,.25-2.1,4.08,4.08,0,0,1,1.26-1.68,4.18,4.18,0,0,1,2.07-.86,4,4,0,0,1,2,.19,3.32,3.32,0,0,1,1.4,1,2.77,2.77,0,0,1,.63,1.41,2.16,2.16,0,0,1-.18,1.32,2.31,2.31,0,0,1-.81.89,4,4,0,0,1-1.15.51,4.93,4.93,0,0,1-1.23.2,4,4,0,0,1-1-.06,1.5,1.5,0,0,0,.86.56,2.35,2.35,0,0,0,1,0,6.45,6.45,0,0,0,.92-.24,1.29,1.29,0,0,1,.87-.07.62.62,0,0,1,.43.49.91.91,0,0,1-.13.64,1.7,1.7,0,0,1-.74.62A5.18,5.18,0,0,1,76.45,15.51ZM74.67,11a.88.88,0,0,0,.54.31,1.47,1.47,0,0,0,.66,0A1.2,1.2,0,0,0,76.4,11a.49.49,0,0,0,.17-.46.7.7,0,0,0-.3-.48,1,1,0,0,0-.75-.13.93.93,0,0,0-.68.4A.92.92,0,0,0,74.67,11Z" transform="translate(-1.83 -1.8)"/><path d="M83.72,14.5a4.93,4.93,0,0,1-2.43-.16,1.46,1.46,0,0,1-1.05-1.14.94.94,0,0,1,.25-.86,1.49,1.49,0,0,1,.83-.38,1.18,1.18,0,0,1,.62,0,4.23,4.23,0,0,1,.38.23.57.57,0,0,0,.39.08c.23,0,.34-.13.32-.3s-.19-.37-.47-.44-.62-.16-1-.28a2.84,2.84,0,0,1-1.29-.74,1.87,1.87,0,0,1-.5-1A1.93,1.93,0,0,1,80,8.28a3.47,3.47,0,0,1,1.16-1.12,4.78,4.78,0,0,1,2-.65,5.34,5.34,0,0,1,1.79,0,3.3,3.3,0,0,1,1.33.56,1.44,1.44,0,0,1,.6,1,1,1,0,0,1-.23.84,1.38,1.38,0,0,1-.84.39,1,1,0,0,1-.49,0l-.35-.13a.82.82,0,0,0-.4,0,.41.41,0,0,0-.23.13.34.34,0,0,0-.07.24.31.31,0,0,0,.12.19.64.64,0,0,0,.31.13,6.18,6.18,0,0,1,1.08.29,2.62,2.62,0,0,1,.92.56,1.68,1.68,0,0,1,.47,1,2,2,0,0,1-.79,1.87A5.24,5.24,0,0,1,83.72,14.5Z" transform="translate(-1.83 -1.8)"/><path d="M91.4,13.43A5.05,5.05,0,0,1,89,13.27a1.46,1.46,0,0,1-1-1.14,1,1,0,0,1,.25-.86,1.56,1.56,0,0,1,.83-.38,1.07,1.07,0,0,1,.62,0,4.23,4.23,0,0,1,.38.23.59.59,0,0,0,.39.08c.24,0,.35-.13.32-.3s-.18-.37-.46-.44-.63-.16-1-.28a2.85,2.85,0,0,1-1.28-.74,1.76,1.76,0,0,1-.5-1,1.92,1.92,0,0,1,.28-1.27,3.29,3.29,0,0,1,1.16-1.12,4.73,4.73,0,0,1,1.94-.65,5.08,5.08,0,0,1,1.79,0A3.29,3.29,0,0,1,93.93,6a1.47,1.47,0,0,1,.59,1,1,1,0,0,1-.22.84,1.38,1.38,0,0,1-.84.39,1,1,0,0,1-.5,0,2.68,2.68,0,0,1-.34-.13.87.87,0,0,0-.41,0,.38.38,0,0,0-.22.13.3.3,0,0,0-.07.24.34.34,0,0,0,.11.19.69.69,0,0,0,.31.13A5.74,5.74,0,0,1,93.42,9a2.53,2.53,0,0,1,.92.56,1.63,1.63,0,0,1,.48,1A2,2,0,0,1,94,12.43,5.28,5.28,0,0,1,91.4,13.43Z" transform="translate(-1.83 -1.8)"/></svg>