<svg id="Layer_1_Image" data-name="Layer 1 Image" xmlns="http://www.w3.org/2000/svg" viewBox="0 0 104.45 33.9"><defs><style>.cls-1{fill:#efafaf;}.cls-2{fill:#fedbb5;}.cls-3{font-size:17.02px;font-family:CherryBombOne-Regular, Cherry Bomb One;}.cls-4{letter-spacing:-0.02em;}.cls-5{letter-spacing:-0.01em;}.cls-6{letter-spacing:0em;}.cls-7{letter-spacing:-0.02em;}</style></defs><path class="cls-1" d="M68,20.34a8.71,8.71,0,0,1-1.13.08,7.24,7.24,0,0,1-3.19-.72l-.44-.24a9.09,9.09,0,0,1-1.09.85,8.46,8.46,0,0,1-3.68,1.34,12.15,12.15,0,0,1-1.7.12,10.11,10.11,0,0,1-3.25-.52c-.27-.1-.53-.2-.78-.32A5.66,5.66,0,0,1,51,22.28a8.65,8.65,0,0,1-2.82.82,9.8,9.8,0,0,1-1.3.09,7.78,7.78,0,0,1-2.52-.4A5.09,5.09,0,0,1,41.74,24a5.45,5.45,0,0,1-.78.05,5.34,5.34,0,0,1-1.21-.14,4.94,4.94,0,0,1-1.85.62,5.3,5.3,0,0,1-.77.06,5.05,5.05,0,0,1-1.23-.15,5.16,5.16,0,0,1-1.86.61,4.31,4.31,0,0,1-.71.05,4.63,4.63,0,0,1-1.53-.25,5.05,5.05,0,0,1-2.23.84,5.3,5.3,0,0,1-.77.06,4.68,4.68,0,0,1-1.51-.24,5,5,0,0,1-2.13.8,5.36,5.36,0,0,1-.78.05A4.81,4.81,0,0,1,22.6,26a5.06,5.06,0,0,1-2.37.95,5.12,5.12,0,0,1-.67,0,4.75,4.75,0,0,1-1.88-.38A5.73,5.73,0,0,1,15,27.74a7.12,7.12,0,0,1-.89.06,5.06,5.06,0,0,1-2-.41,5.32,5.32,0,0,1-2.74,1.15,5.6,5.6,0,0,1-5.31-2.2A10.19,10.19,0,0,1,2.15,22a13.74,13.74,0,0,1-.06-5.56,9.32,9.32,0,0,1,2.5-4.77,8.48,8.48,0,0,1,5-2.44,9.87,9.87,0,0,1,1.32-.09A8.26,8.26,0,0,1,15,10.19a8.77,8.77,0,0,1,2.12,1.69,4.65,4.65,0,0,1,.91-.22,5.05,5.05,0,0,1,.75-.05,4.57,4.57,0,0,1,1.17.14,6.21,6.21,0,0,1,1-.22,8.26,8.26,0,0,1,1.1-.08,5.58,5.58,0,0,1,2-3.94,5.45,5.45,0,0,1,2.77-1.22,6.78,6.78,0,0,1,.77,0,5.46,5.46,0,0,1,2.22.47A5.63,5.63,0,0,1,32,8.39a5.42,5.42,0,0,1,.76,1.26q.31,0,.63.06l.32,0,.44-.07a6.49,6.49,0,0,1,.77,0,6.09,6.09,0,0,1,1,.09,6.57,6.57,0,0,1,2.07-.58,7.55,7.55,0,0,1,.83-.05A6.32,6.32,0,0,1,42,9.88l.25-.21A7.63,7.63,0,0,1,46,8.06,8,8,0,0,1,47.21,8a7.62,7.62,0,0,1,1.28.11A8.79,8.79,0,0,1,49.88,6a9.59,9.59,0,0,1,2.86-2.22,10.59,10.59,0,0,1,3.22-1,11.41,11.41,0,0,1,1.62-.11,9.07,9.07,0,0,1,2.25.27,7.48,7.48,0,0,1,3.25,1.69,6.31,6.31,0,0,1,.88,1l.46,0A5.08,5.08,0,0,1,66,5.8,5.4,5.4,0,0,1,68.31,5a5.92,5.92,0,0,1,.71,0,4.88,4.88,0,0,1,2.19.53,7.74,7.74,0,0,1,3.5-1.37A9.77,9.77,0,0,1,75.9,4a7.18,7.18,0,0,1,2.63.48l.13,0,.56-.39A8.43,8.43,0,0,1,82.57,3a9.08,9.08,0,0,1,1.36-.1A7.91,7.91,0,0,1,85.56,3a5.6,5.6,0,0,1,1,.27l.38-.25A8.38,8.38,0,0,1,90.25,1.9a9.18,9.18,0,0,1,1.36-.1A8.07,8.07,0,0,1,93.25,2,6.64,6.64,0,0,1,96.07,3.2a5,5,0,0,1,2,3.31,4.64,4.64,0,0,1-.15,2,5.59,5.59,0,0,1,.44,1.54,6,6,0,0,1,0,1.52c.32,0,.64,0,1,0a7.14,7.14,0,0,1,2.63.48,7,7,0,0,1,2.86,2,6.45,6.45,0,0,1,1.43,3.21,5.78,5.78,0,0,1-.41,3.19l.06.28a4.49,4.49,0,0,1-.52,3,5.15,5.15,0,0,1-2.22,2.07,8.72,8.72,0,0,1-2.83.82,9.61,9.61,0,0,1-1.3.1,8.1,8.1,0,0,1-2.7-.46q-.36-.13-.72-.3c-.14.13-.3.25-.45.37A8.62,8.62,0,0,1,90.06,28a7.83,7.83,0,0,1-2.52-.41,5,5,0,0,1-2.67,1.2,5.32,5.32,0,0,1-.78.06,4.81,4.81,0,0,1-1.2-.15,5.19,5.19,0,0,1-1.86.63,6.78,6.78,0,0,1-.77.05A4.91,4.91,0,0,1,79,29.27a5.43,5.43,0,0,1-1.87.62,5.49,5.49,0,0,1-.7.05,4.84,4.84,0,0,1-1.74-.32,5.23,5.23,0,0,1-2.23.85,6.27,6.27,0,0,1-.74.05,5.14,5.14,0,0,1-2.12-.45,5.39,5.39,0,0,1-2-1.54,5.09,5.09,0,0,1-1.16-2.64,5.24,5.24,0,0,1,.37-2.82A5.5,5.5,0,0,1,68.41,21Z" transform="translate(-1.83 1.99)"/><path class="cls-2" d="M103.84,20.34c.08-.13.16-.26.23-.4a3.85,3.85,0,0,0,.36-2.4,4.53,4.53,0,0,0-1-2.31,5.09,5.09,0,0,0-2.13-1.51,5.31,5.31,0,0,0-2-.36,7.5,7.5,0,0,0-.93.06,6,6,0,0,0-3,1.24,5.9,5.9,0,0,0-1.18,1.27A5.93,5.93,0,0,0,92.71,15a6.32,6.32,0,0,0,2.4-1.16,3.73,3.73,0,0,0,1.44-3.51,3.64,3.64,0,0,0-.67-1.67,2.89,2.89,0,0,0,.38-1.91A3.24,3.24,0,0,0,95,4.62a5,5,0,0,0-2.07-.9,6.8,6.8,0,0,0-1.29-.12,8.53,8.53,0,0,0-1.11.08,6.76,6.76,0,0,0-2.64.9,5.91,5.91,0,0,0-1,.83,5.39,5.39,0,0,0-1.6-.62,6.7,6.7,0,0,0-1.28-.12,8.53,8.53,0,0,0-1.11.08,6.87,6.87,0,0,0-2.65.9,6.1,6.1,0,0,0-1.24,1,5.57,5.57,0,0,0-1.06-.55,5.35,5.35,0,0,0-2-.36,7.78,7.78,0,0,0-.94.06A6,6,0,0,0,72,7.08a6.17,6.17,0,0,0-.69.66,3.13,3.13,0,0,0-2.3-1,2.45,2.45,0,0,0-.46,0A3.11,3.11,0,0,0,66.31,8a3,3,0,0,0-.48-.31,3.11,3.11,0,0,0-1.41-.32,4.54,4.54,0,0,0-.6.05,3.2,3.2,0,0,0-.82.22A4.12,4.12,0,0,0,61.86,5.9a5.58,5.58,0,0,0-2.48-1.28,7.34,7.34,0,0,0-1.8-.21,9.41,9.41,0,0,0-1.37.1,8.48,8.48,0,0,0-2.66.83,7.89,7.89,0,0,0-2.32,1.8,7.31,7.31,0,0,0-1.52,2.8l-.09.39-.43-.2a5.36,5.36,0,0,0-2-.36,6.51,6.51,0,0,0-3.88,1.3,5.87,5.87,0,0,0-1.13,1.21,5.11,5.11,0,0,0-.87-.68,4.57,4.57,0,0,0-2.45-.7,4.4,4.4,0,0,0-.62,0,4.13,4.13,0,0,0-2,.72,4,4,0,0,0-1.31-.22,3.15,3.15,0,0,0-.53,0,4.6,4.6,0,0,0-.72.14,3,3,0,0,0-.55-.13,2.74,2.74,0,0,0-.5,0,3.39,3.39,0,0,0-1.21.24c0-.1,0-.21,0-.31a3.73,3.73,0,0,0-.78-1.87,4,4,0,0,0-1.49-1.15A3.7,3.7,0,0,0,27.64,8a3,3,0,0,0-.52,0,3.6,3.6,0,0,0-1.87.81,4,4,0,0,0-1.13,1.55,4.07,4.07,0,0,0,.22,3.34,5,5,0,0,0-2.25-.53,6.85,6.85,0,0,0-.88.06,4.63,4.63,0,0,0-1.2.34,3,3,0,0,0-1.2-.24l-.5,0a3,3,0,0,0-1.63.77,7.45,7.45,0,0,0-2.54-2.46,6.52,6.52,0,0,0-3.26-.84A7.79,7.79,0,0,0,9.81,11,6.73,6.73,0,0,0,5.87,12.9a7.64,7.64,0,0,0-2,3.88,12,12,0,0,0,.06,4.83,8.44,8.44,0,0,0,1.55,3.61A3.83,3.83,0,0,0,8.55,26.8a3.69,3.69,0,0,0,.56,0,3.45,3.45,0,0,0,2-.87,3.23,3.23,0,0,0,.68-.92,2.92,2.92,0,0,0,.93.7,3.17,3.17,0,0,0,1.46.33,3.66,3.66,0,0,0,.64-.05,3.76,3.76,0,0,0,2.66-1.66c.07.07.13.16.21.23a2.92,2.92,0,0,0,1.91.7l.42,0a2.87,2.87,0,0,0,2.28-1.47l0-.06a.3.3,0,0,0,.08.08,2.72,2.72,0,0,0,2,.81l.53,0A3,3,0,0,0,27,23.34,3,3,0,0,0,28.8,24a3.2,3.2,0,0,0,.52,0,3,3,0,0,0,2.16-1.25,3,3,0,0,0,1.85.64l.46,0a3.1,3.1,0,0,0,1.84-.87,3,3,0,0,0,1.5.39,3.2,3.2,0,0,0,.52,0,3,3,0,0,0,1.82-.88,2.89,2.89,0,0,0,1.49.38l.53,0a3.11,3.11,0,0,0,2.3-1.48l.08-.15a5.92,5.92,0,0,0,1,.45,6.34,6.34,0,0,0,2.1.35,7.65,7.65,0,0,0,1-.08,7,7,0,0,0,2.24-.63,3.44,3.44,0,0,0,1.48-1.35,2.64,2.64,0,0,0,.33-1,6.74,6.74,0,0,0,2.11,1.19A8,8,0,0,0,56.8,20a10.61,10.61,0,0,0,1.47-.11,6.79,6.79,0,0,0,2.92-1.05A6.12,6.12,0,0,0,63,17a5.75,5.75,0,0,0,1.51,1.09,5.41,5.41,0,0,0,2.4.54,5.3,5.3,0,0,0,.88-.07,5.73,5.73,0,0,0,3.15-1.38,5.5,5.5,0,0,0,.9-1.08,5.55,5.55,0,0,0,1.68.95l.06,0a3.41,3.41,0,0,0-1.22,2.28,10.41,10.41,0,0,0,0,2.3,3.93,3.93,0,0,0-.6-.06,2.63,2.63,0,0,0-.49,0,3.47,3.47,0,0,0-1.73.73,3.62,3.62,0,0,0-1.07,1.43,3.5,3.5,0,0,0,.51,3.6,3.77,3.77,0,0,0,1.39,1.05,3.5,3.5,0,0,0,1.39.29l.49,0A3.51,3.51,0,0,0,74,27.93a4.34,4.34,0,0,0,.52-.53,3,3,0,0,0,2,.74,2.28,2.28,0,0,0,.45,0,3,3,0,0,0,1.84-.87,2.92,2.92,0,0,0,1.5.39,3.12,3.12,0,0,0,.52,0,3.08,3.08,0,0,0,1.83-.88,2.88,2.88,0,0,0,1.48.39,5.29,5.29,0,0,0,.54,0,3.15,3.15,0,0,0,2.3-1.48l.09-.18a6.92,6.92,0,0,0,.9.46,5.82,5.82,0,0,0,2.14.4,6.81,6.81,0,0,0,1.07-.09A6.59,6.59,0,0,0,94.05,25a5.78,5.78,0,0,0,1.22-1.25,5.38,5.38,0,0,0,1.64.92A6,6,0,0,0,99,25a7.54,7.54,0,0,0,1-.08,7.07,7.07,0,0,0,2.25-.63,3.4,3.4,0,0,0,1.48-1.36,2.67,2.67,0,0,0,.32-1.83A2.6,2.6,0,0,0,103.84,20.34Z" transform="translate(-1.83 1.99)"/><text class="cls-3" transform="translate(67.75 29.31) rotate(-7.93)">.<tspan class="cls-4" x="4.9" y="0">mo</tspan><tspan x="25.81" y="0">e</tspan></text><text class="cls-3" transform="translate(3.97 27.36) rotate(-7.93)">An<tspan class="cls-5" x="21.08" y="0">i</tspan><tspan class="cls-4" x="25.75" y="0">m</tspan><tspan class="cls-6" x="37.62" y="0">eG</tspan><tspan class="cls-7" x="57.79" y="0">ues</tspan><tspan x="82.68" y="0">s</tspan></text></svg>