<svg id="Layer_1" data-name="Layer 1" xmlns="http://www.w3.org/2000/svg" viewBox="0 0 266.94 289.82"><defs><style>.cls-1{fill:#fff;}</style></defs><path d="M313.61,186.3c-3-33.9-11.34-63.48-24.8-87.91-14-25.36-32.44-44.46-54.94-56.78-23-12.61-49.13-16.76-77.52-12.35-28.16,4.38-51.68,16.23-69.92,35.23-17.84,18.59-29.72,42.49-35.31,71-5.38,27.45-4.47,58.1,2.69,91.14,6.1,27.52,15.93,49.69,29.22,65.89s30.24,24.82,49,24.82a63.88,63.88,0,0,0,9.78-.77c12.95-2,23.16-6.61,30.36-13.65a47.13,47.13,0,0,0,13.54-24.32A65,65,0,0,0,187,261.43c1.59-.25,3.21-.51,4.86-.79,1.86-.31,3.67-.61,5.44-.92a64.44,64.44,0,0,0,6.48,16.1,46,46,0,0,0,20.53,19c9,4.37,19.75,5.51,32.77,3.48,22.52-3.5,39.36-17.26,48.68-39.81C313.6,239.44,316.26,215.14,313.61,186.3Z" transform="translate(-47.67 -27.55)"/><path class="cls-1" d="M303.56,187.21c-2.87-32.5-10.81-60.74-23.59-83.95C267,79.61,249.81,61.85,229,50.47,208,39,184,35.18,157.9,39.24c-25.92,4-47.52,14.87-64.19,32.24-16.47,17.17-27.47,39.37-32.68,66-5.11,26.09-4.23,55.35,2.64,87,5.75,25.95,14.89,46.7,27.17,61.67,11.42,13.92,25.51,21.12,41.14,21.12a52.84,52.84,0,0,0,8.24-.65c10.82-1.68,19.19-5.34,24.85-10.88a37.25,37.25,0,0,0,10.72-19.18,54.14,54.14,0,0,0,.55-19.56c-.22-1.42-.46-2.8-.71-4.13q6.65-.87,14.53-2.2c5.46-.91,10.58-1.79,15.31-2.63.16,1.41.36,2.86.59,4.34a54.38,54.38,0,0,0,6.46,18.46,36.13,36.13,0,0,0,16.14,14.92c7.13,3.45,15.9,4.3,26.83,2.6,19.12-3,32.88-14.31,40.9-33.7C303.64,237.11,306.06,214.41,303.56,187.21Z" transform="translate(-47.67 -27.55)"/><path d="M138.78,297.37Q115.17,301,98.09,280.21T72.82,222.46q-9.93-45.78-2.59-83.19T100.48,78Q123.4,54.09,159.33,48.5q36.27-5.64,65.2,10.2t47.23,49.08q18.3,33.25,22.46,80.27,3.55,38.7-6.5,63t-33.67,28q-13.35,2.07-21.3-1.78a26.89,26.89,0,0,1-12.07-11.09A44.8,44.8,0,0,1,215.33,251a82.41,82.41,0,0,1-1.13-14q-10.9,2.06-25.58,4.5t-24.72,3.32a81.55,81.55,0,0,1,3.18,13.7,45,45,0,0,1-.46,16.19,27.94,27.94,0,0,1-8.1,14.4Q152.13,295.29,138.78,297.37ZM152,184.21q26.86-5.22,54.06-8.4a70.92,70.92,0,0,0-3.9-22.87q-3.75-10.63-11.32-16.47t-19.54-4q-12,1.86-17.25,9.69t-5.47,18.9A75.08,75.08,0,0,0,152,184.21Z" transform="translate(-47.67 -27.55)"/></svg>