<svg xmlns="http://www.w3.org/2000/svg" viewBox="0 0 339.8 282.21"><defs><style>.cls-1{fill:#fff;}</style></defs><g id="Layer_1" data-name="Layer 1"><path d="M267.16,197.35c-2.92-33-11.05-61.8-24.15-85.6-13.6-24.69-31.59-43.29-53.5-55.28-22.44-12.28-47.84-16.33-75.49-12C86.61,48.7,63.7,60.24,45.94,78.75,28.58,96.84,17,120.12,11.56,147.92c-5.23,26.72-4.36,56.57,2.62,88.75,5.94,26.79,15.51,48.38,28.46,64.15S72.08,325,90.3,325a63.05,63.05,0,0,0,9.53-.75c12.61-2,22.55-6.43,29.56-13.29a45.93,45.93,0,0,0,13.19-23.68,62.84,62.84,0,0,0,1.25-16.76c1.55-.24,3.13-.5,4.74-.77l5.29-.89a63.07,63.07,0,0,0,6.31,15.67,44.82,44.82,0,0,0,20,18.54c8.79,4.25,19.23,5.36,31.91,3.39,21.93-3.4,38.32-16.81,47.4-38.77C267.15,249.09,269.74,225.43,267.16,197.35Z" transform="translate(-8.2 -42.78)"/><path class="cls-1" d="M257.37,198.24c-2.8-31.64-10.53-59.15-23-81.75-12.68-23-29.37-40.32-49.61-51.4C164.29,53.88,141,50.2,115.53,54.15,90.29,58.07,69.27,68.64,53,85.55c-16,16.72-26.75,38.34-31.83,64.26-5,25.4-4.12,53.9,2.57,84.73,5.6,25.27,14.5,45.47,26.46,60,11.12,13.56,24.84,20.57,40.06,20.57a51.17,51.17,0,0,0,8-.64c10.54-1.63,18.68-5.2,24.2-10.6A36.26,36.26,0,0,0,133,285.25a52.85,52.85,0,0,0,.53-19c-.21-1.39-.44-2.73-.69-4,4.31-.57,9-1.28,14.15-2.14,5.31-.88,10.3-1.74,14.9-2.56.17,1.37.36,2.78.58,4.23a52.87,52.87,0,0,0,6.29,18,35.14,35.14,0,0,0,15.72,14.53c6.94,3.36,15.48,4.18,26.12,2.53,18.62-2.89,32-13.93,39.82-32.81C257.45,246.82,259.8,224.73,257.37,198.24Z" transform="translate(-8.2 -42.78)"/><path d="M96.92,305.5q-23,3.58-39.62-16.7T32.69,232.56Q23,188,30.17,151.56T59.62,91.87q22.32-23.25,57.31-28.7,35.31-5.47,63.48,9.93t46,47.8q17.83,32.37,21.87,78.16,3.47,37.68-6.32,61.38t-32.79,27.28q-13,2-20.74-1.72a26.2,26.2,0,0,1-11.75-10.8,43.47,43.47,0,0,1-5.21-14.89,78.86,78.86,0,0,1-1.1-13.65q-10.62,2-24.91,4.38t-24.07,3.23a80,80,0,0,1,3.09,13.34,43.41,43.41,0,0,1-.45,15.77,27.18,27.18,0,0,1-7.88,14Q109.92,303.49,96.92,305.5Zm12.91-110.18q26.16-5.08,52.64-8.18a69.05,69.05,0,0,0-3.8-22.28q-3.66-10.34-11-16t-19-3.87q-11.67,1.81-16.79,9.44t-5.33,18.4A72.92,72.92,0,0,0,109.83,195.32Z" transform="translate(-8.2 -42.78)"/></g><g id="Layer_4" data-name="Layer 4"><path d="M344,138.77h0a68.67,68.67,0,0,0-20.19-28c-9.38-8-21.15-13.43-35-16.21a75.17,75.17,0,0,0-29.93-.29,77,77,0,0,0-25.21,9.81,67.51,67.51,0,0,0-18.75,16.8A53,53,0,0,0,205,142.26c-2.48,12.31-1.25,22.87,3.65,31.37,5.19,9,13.12,14.65,23.56,16.75a49.58,49.58,0,0,0,6.25.86,67.06,67.06,0,0,0-3,10.56,35,35,0,0,0,3.11,23.62c4.05,7.77,11,12.84,20.14,14.68l1,.19c9.52,1.64,18-.34,24.59-5.73a31.83,31.83,0,0,0,10-13.62c2.71-.83,5.82-1.76,9.26-2.75a80,80,0,0,0,16.19-6.86,53.77,53.77,0,0,0,16.46-14.5c4.92-6.4,8.47-14.88,10.55-25.21A58.71,58.71,0,0,0,344,138.77Z" transform="translate(-8.2 -42.78)"/><path class="cls-1" d="M338.47,140.86A63,63,0,0,0,320,115.23c-8.61-7.32-19.5-12.34-32.36-14.93A69.47,69.47,0,0,0,260,100a71.3,71.3,0,0,0-23.3,9,61.7,61.7,0,0,0-17.13,15.33,47.06,47.06,0,0,0-8.8,19c-2.19,10.87-1.18,20.05,3,27.28a28.05,28.05,0,0,0,19.63,13.93,37.92,37.92,0,0,0,15.06.18,31.15,31.15,0,0,0-2.49,4A53.89,53.89,0,0,0,241.25,203a29.13,29.13,0,0,0,2.56,19.75c3.21,6.15,8.76,10.16,16.09,11.63l.87.17c7.9,1.36,14.59-.15,19.89-4.49a25.3,25.3,0,0,0,9-13.66,8.06,8.06,0,0,1,1.25-.49c3.11-1,6.85-2.09,11.11-3.32a74,74,0,0,0,15-6.36,47.89,47.89,0,0,0,14.65-12.94c4.37-5.68,7.54-13.35,9.44-22.79A52.89,52.89,0,0,0,338.47,140.86Z" transform="translate(-8.2 -42.78)"/><path d="M284.11,214.32q-1.26,6.31-7.17,11.16t-15.17,3.24q-9-1.53-12.76-8.73a23.3,23.3,0,0,1-2-15.88,48.45,48.45,0,0,1,4.17-12.58,24,24,0,0,1,7.49-8.62,108.44,108.44,0,0,1,12.73-8.13q6.28-3.37,7.3-8.39,1.38-6.84-5.73-8.27a7.78,7.78,0,0,0-5.82,1,7.12,7.12,0,0,0-3.3,4.81q-1.74,8.69-10.12,12.89t-19.17,2a22.36,22.36,0,0,1-15.71-11.11q-5.18-9-2.32-23.2a41.2,41.2,0,0,1,7.74-16.65,55.47,55.47,0,0,1,15.52-13.86,65,65,0,0,1,21.39-8.3,63.46,63.46,0,0,1,25.28.29q17.9,3.6,29.71,13.65A56.93,56.93,0,0,1,333,142.94a46.85,46.85,0,0,1,2.37,26.36q-2.6,12.9-8.34,20.37a42,42,0,0,1-12.84,11.39,67.44,67.44,0,0,1-13.78,5.85q-6.69,2-11.22,3.36C286.15,211.22,284.47,212.57,284.11,214.32Z" transform="translate(-8.2 -42.78)"/></g><g id="Layer_2" data-name="Layer 2"><path d="M271,262.52a12.9,12.9,0,0,0,2.89-5.82,16.94,16.94,0,0,0-8.55-17.62A25.72,25.72,0,0,0,253.06,236a39.92,39.92,0,0,0-15,2.93,41.22,41.22,0,0,0-11.58,6.8,37.1,37.1,0,0,0-8.88,10.84,34.57,34.57,0,0,0-4,14.55,41.7,41.7,0,0,0,3.05,17.36,37.57,37.57,0,0,0,10.71,15.71,30.6,30.6,0,0,0,16.75,7,43.11,43.11,0,0,0,20-3.06l.47-.17a31.75,31.75,0,0,0,11.79-7.7,27.7,27.7,0,0,0,6.87-11.84,21.25,21.25,0,0,0-.61-13.51,24.34,24.34,0,0,0-5.55-9A13.39,13.39,0,0,0,271,262.52Z" transform="translate(-8.2 -42.78)"/><path class="cls-1" d="M267.21,264.37a19,19,0,0,0-3,.19,15.83,15.83,0,0,0,4.2-2.74,10.54,10.54,0,0,0,3.19-5.63,14.59,14.59,0,0,0-7.43-15.07A23.29,23.29,0,0,0,253,238.35a37.64,37.64,0,0,0-14.13,2.77A38.67,38.67,0,0,0,228,247.54a34.68,34.68,0,0,0-8.32,10.16,32.27,32.27,0,0,0-3.74,13.56,39.59,39.59,0,0,0,2.9,16.39,35.26,35.26,0,0,0,10,14.74,28.37,28.37,0,0,0,15.49,6.49c5.8.63,12.17-.36,18.93-2.93l.43-.16a29.51,29.51,0,0,0,10.94-7.13,25.53,25.53,0,0,0,6.3-10.84,19,19,0,0,0-.54-12.06,22.17,22.17,0,0,0-5-8.16A11.76,11.76,0,0,0,267.21,264.37Z" transform="translate(-8.2 -42.78)"/><path d="M262.43,303.75q-9.68,3.67-17.86,2.8a25.92,25.92,0,0,1-14.23-5.95A32.83,32.83,0,0,1,221,286.81a37.09,37.09,0,0,1-2.75-15.4,29.77,29.77,0,0,1,3.46-12.59,32.23,32.23,0,0,1,7.76-9.48,36.42,36.42,0,0,1,10.25-6A35.08,35.08,0,0,1,253,240.7a21,21,0,0,1,10,2.45,12.3,12.3,0,0,1,6.3,12.53,8.15,8.15,0,0,1-2.48,4.4,13.16,13.16,0,0,1-4.2,2.59,14.42,14.42,0,0,1-4.86,1.11c-1.29,0-2.59,0-3.89.05A15.18,15.18,0,0,0,249,265a12.82,12.82,0,0,0-7.65,6.76q-2.06,4.64.35,10.94a11.93,11.93,0,0,0,3.89,5.53A10.46,10.46,0,0,0,251,290.3a13.39,13.39,0,0,0,5.94-.88,14.84,14.84,0,0,0,4.6-2.59,9.59,9.59,0,0,0,2.28-2.7c.42-.81.57-1.37.46-1.65a29,29,0,0,1-9.83,2.21,5.48,5.48,0,0,1-5.53-3.88,7.77,7.77,0,0,1,.24-6.37q1.5-3.09,7.8-5.48a28,28,0,0,1,10.17-2.25,9.49,9.49,0,0,1,6.61,2.58,19.66,19.66,0,0,1,4.41,7.31,16.55,16.55,0,0,1,.48,10.59,23,23,0,0,1-5.74,9.85A27.25,27.25,0,0,1,262.43,303.75Z" transform="translate(-8.2 -42.78)"/></g></svg>